<?xml version="1.0" standalone="no"?>
<!DOCTYPE svg PUBLIC "-//W3C//DTD SVG 20010904//EN"
 "http://www.w3.org/TR/2001/REC-SVG-20010904/DTD/svg10.dtd">
<svg version="1.0" xmlns="http://www.w3.org/2000/svg"
 width="438.000000pt" height="570.000000pt" viewBox="0 0 438.000000 570.000000"
 preserveAspectRatio="xMidYMid meet">

<g transform="translate(0.000000,570.000000) scale(0.100000,-0.100000)"
fill="#000000" stroke="none">
<path d="M1625 5493 c-132 -15 -296 -84 -408 -170 -62 -48 -118 -118 -158
-196 -32 -65 -61 -92 -116 -111 -58 -20 -97 -20 -112 -2 -7 8 -25 17 -40 21
-16 3 -39 17 -51 30 -13 14 -39 30 -58 36 -33 11 -37 10 -55 -12 -28 -35 -16
-92 34 -151 21 -26 39 -53 39 -60 0 -7 -18 -35 -40 -63 -223 -279 -335 -449
-450 -682 -59 -119 -80 -194 -80 -279 0 -53 4 -65 26 -87 15 -16 47 -31 79
-38 51 -11 57 -11 110 16 30 16 60 34 66 42 7 7 17 13 24 13 8 0 26 11 42 23
15 13 57 38 93 56 36 18 77 42 92 52 14 10 29 19 33 19 3 0 48 20 98 44 120
57 251 114 307 133 98 34 238 103 283 140 16 12 32 23 37 23 14 0 97 86 104
108 4 12 11 22 16 22 20 0 32 87 27 192 -7 113 -5 119 43 132 14 4 34 11 45
16 11 5 32 14 47 19 31 12 66 58 52 70 -23 21 -195 66 -284 75 -94 10 -97 14
-42 70 88 89 172 108 270 61 29 -14 58 -25 66 -25 8 0 36 -18 62 -41 26 -23
58 -46 71 -52 13 -5 23 -13 23 -16 0 -4 16 -24 35 -46 44 -49 71 -99 80 -148
7 -33 3 -41 -28 -76 -46 -51 -67 -92 -67 -130 0 -33 10 -46 75 -92 l45 -33 -6
-62 -7 -62 67 -63 67 -63 -31 -24 c-38 -30 -39 -65 -5 -130 14 -26 25 -52 25
-59 0 -7 -18 -30 -40 -52 -40 -39 -40 -40 -40 -118 0 -50 -7 -99 -20 -137 -21
-62 -26 -141 -11 -150 5 -4 12 -23 16 -45 5 -31 2 -45 -19 -76 -32 -46 -33
-75 -4 -131 21 -43 21 -44 3 -84 -31 -68 -20 -113 42 -180 13 -14 23 -30 23
-36 0 -12 -38 -94 -71 -154 -35 -65 -20 -126 56 -226 l35 -46 0 -118 c0 -137
10 -172 76 -271 52 -79 108 -128 191 -168 68 -33 80 -46 89 -89 6 -29 4 -32
-17 -31 -23 0 -41 8 -155 71 -55 29 -153 124 -185 178 -12 19 -35 51 -53 70
-73 79 -148 229 -169 335 -34 168 -40 256 -33 455 8 221 13 270 60 580 27 177
33 258 35 425 2 135 -1 170 -18 220 -62 192 -83 230 -169 313 -42 39 -82 72
-88 72 -33 0 -22 -27 34 -84 62 -63 65 -71 112 -256 24 -93 19 -234 -20 -565
-11 -93 -51 -323 -73 -410 -8 -34 -12 -143 -12 -335 l1 -285 31 -115 c44 -166
120 -350 188 -455 44 -68 224 -244 313 -305 76 -53 197 -122 297 -169 61 -29
130 -100 212 -219 18 -26 98 -111 178 -189 80 -77 145 -148 145 -157 0 -8 -8
-37 -17 -63 -14 -38 -18 -80 -18 -193 0 -162 7 -194 77 -334 62 -127 252 -364
281 -353 24 9 41 135 34 264 -6 130 -31 243 -71 322 -14 28 -26 60 -26 72 0
19 4 21 32 15 18 -4 54 -17 79 -31 81 -42 161 -57 308 -57 234 0 252 29 109
173 -84 85 -176 150 -270 193 -108 49 -164 60 -297 54 -64 -3 -126 -2 -138 1
-51 13 -230 163 -276 231 -17 25 -43 57 -59 71 -32 31 -71 116 -63 137 4 11
28 12 137 7 225 -12 419 32 643 147 197 101 320 222 424 421 61 114 82 205 82
344 0 132 -27 188 -106 224 -82 38 -258 12 -370 -53 -38 -23 -81 -51 -95 -64
-31 -27 -106 -74 -119 -74 -15 0 50 108 95 159 23 25 51 64 62 87 11 22 28 46
36 53 22 19 20 77 -4 111 -11 16 -35 38 -54 49 -76 47 -250 11 -344 -70 -18
-16 -39 -29 -46 -29 -7 0 -21 -10 -32 -21 -10 -12 -37 -33 -59 -47 -71 -45
-376 -367 -411 -434 -12 -24 -38 -75 -58 -114 -46 -93 -55 -100 -107 -85 -22
7 -48 20 -58 29 -133 124 -161 166 -161 245 0 53 16 111 34 126 11 10 26 6 67
-15 94 -47 215 -42 318 13 83 44 111 86 111 165 0 127 -133 187 -260 118 -30
-16 -80 -41 -110 -55 -30 -14 -62 -30 -70 -35 -101 -64 -190 -49 -175 29 10
52 28 82 78 128 44 41 69 51 177 73 30 6 66 17 80 25 14 7 39 21 55 30 17 8
41 22 55 30 14 8 77 26 140 41 157 36 231 60 329 108 70 34 101 57 178 135 51
52 93 103 93 112 0 23 -27 49 -49 49 -10 0 -29 -10 -42 -21 -33 -30 -165 -130
-199 -152 -16 -10 -84 -41 -152 -69 -99 -42 -134 -51 -180 -51 -52 0 -61 3
-99 37 -70 64 -91 69 -289 65 l-175 -4 -3 26 c-2 14 3 30 10 35 34 25 160 55
352 85 94 14 126 47 96 97 -6 9 -18 48 -28 87 -17 69 -17 69 -77 103 -81 46
-172 68 -224 55 -34 -9 -43 -8 -60 9 -40 36 -13 106 42 110 37 2 81 -3 92 -12
6 -4 24 -11 40 -15 17 -4 39 -9 50 -12 81 -20 106 -25 155 -33 30 -6 100 -15
154 -20 55 -6 124 -18 155 -26 31 -8 83 -15 116 -15 76 0 311 53 358 81 44 26
65 77 47 118 -13 33 -135 94 -220 111 -138 28 -525 28 -680 0 -36 -7 -95 -23
-132 -36 -90 -31 -125 -30 -140 2 -10 22 -9 29 8 44 24 23 141 49 264 60 110
10 143 21 165 55 21 32 7 61 -32 69 -15 3 -120 3 -233 1 -160 -4 -210 -2 -230
8 -29 16 -38 52 -18 75 11 14 34 15 188 9 260 -11 251 -12 283 24 55 62 31 75
-151 85 -155 8 -401 43 -429 61 -13 8 -23 23 -23 32 0 39 98 96 192 112 52 9
460 6 508 -3 134 -27 469 -38 523 -18 77 30 170 132 188 208 28 120 -5 213
-103 292 -89 72 -171 90 -254 55 -47 -20 -153 -127 -155 -157 -4 -52 0 -76 20
-123 18 -41 30 -54 67 -72 24 -12 57 -22 73 -22 28 0 121 45 121 58 0 4 4 24
9 45 7 29 6 41 -6 53 -13 13 -19 10 -55 -22 -38 -34 -44 -36 -87 -30 -84 11
-97 71 -29 127 58 46 91 59 155 59 45 0 63 -6 108 -35 64 -40 87 -79 88 -150
2 -81 -36 -135 -121 -177 -62 -31 -74 -33 -167 -33 -129 0 -180 16 -360 116
-33 18 -82 52 -110 76 -27 24 -54 43 -60 43 -6 0 -35 20 -65 45 -30 25 -59 45
-64 45 -5 0 -32 15 -60 34 -52 34 -112 70 -194 118 -26 14 -63 29 -82 33 -19
3 -75 20 -125 37 -83 28 -97 30 -185 25 -63 -4 -122 -14 -173 -31 -124 -41
-172 -70 -317 -187 -66 -54 -72 -56 -106 -49 -20 5 -41 13 -47 19 -15 15 25
94 75 148 21 24 38 46 38 51 0 15 133 107 187 130 29 13 86 27 125 32 160 21
420 5 488 -30 22 -11 40 -18 40 -16 0 7 172 -74 190 -89 8 -6 44 -27 80 -46
36 -18 82 -44 102 -57 150 -97 285 -151 303 -123 6 11 -81 68 -155 102 -25 11
-56 31 -70 44 -14 13 -41 31 -62 39 -20 9 -51 29 -69 46 -18 16 -49 37 -69 46
-19 9 -51 29 -70 44 -83 65 -211 115 -344 135 -90 13 -272 18 -351 8z m385
-362 c41 -11 102 -32 135 -49 33 -16 78 -35 100 -43 22 -7 51 -21 64 -31 13
-10 28 -18 34 -18 6 0 18 -6 26 -14 9 -7 38 -25 64 -40 58 -31 247 -173 247
-185 0 -4 -103 -8 -230 -9 -201 0 -232 1 -250 16 -19 16 -35 43 -96 161 -28
53 -114 140 -186 188 -21 14 -38 30 -38 34 0 14 49 10 130 -10z m-1229 -142
c35 -44 32 -56 -16 -65 -44 -8 -91 24 -103 69 -13 46 0 57 48 45 28 -7 50 -23
71 -49z m432 -48 c97 -49 151 -62 264 -65 66 -1 95 -7 116 -20 15 -10 27 -23
27 -29 0 -20 -50 -55 -89 -62 -69 -12 -73 -19 -60 -109 15 -100 2 -161 -51
-243 -51 -77 -104 -121 -205 -167 -104 -48 -107 -50 -195 -81 -191 -69 -383
-154 -482 -212 -27 -16 -77 -56 -112 -91 -66 -63 -121 -92 -178 -92 -43 0 -65
15 -72 52 -7 37 11 125 31 149 7 8 13 22 13 30 0 13 75 132 119 191 12 14 21
30 21 34 0 4 6 15 13 23 7 9 19 34 26 55 8 22 28 63 45 90 18 28 37 62 44 76
6 14 17 34 24 45 29 45 79 123 108 164 33 49 156 181 168 181 4 0 27 18 51 39
23 22 53 42 65 45 11 3 44 12 71 20 91 27 151 21 238 -23z m1883 -971 c96 -10
152 -28 174 -55 32 -38 -52 -55 -283 -55 -257 -1 -477 33 -477 74 0 17 18 22
130 35 151 19 286 19 456 1z m-661 -336 c34 -16 40 -24 43 -55 2 -27 -3 -44
-22 -66 -23 -27 -34 -31 -99 -38 -83 -7 -119 3 -175 50 -47 39 -42 81 13 113
35 20 51 22 120 19 53 -2 94 -10 120 -23z m4 -455 c64 -14 96 -38 87 -66 -4
-12 -14 -24 -24 -28 -52 -20 -202 -53 -232 -50 -19 1 -45 3 -58 4 -51 2 -54
92 -4 113 91 37 152 44 231 27z m1016 -394 c0 -55 -132 -225 -230 -297 -22
-16 -71 -57 -109 -91 -38 -34 -76 -66 -85 -71 -9 -5 -50 -35 -91 -67 -62 -47
-176 -120 -251 -160 -11 -6 -21 -4 -28 5 -8 10 -1 33 30 97 33 64 68 111 156
209 63 69 135 141 159 160 25 19 64 51 87 71 46 40 203 144 239 159 13 5 46 8
73 7 43 -2 50 -5 50 -22z m-885 -156 c-32 -27 -80 -39 -80 -20 0 5 19 25 41
46 39 35 42 36 58 20 15 -15 14 -19 -19 -46z m1315 -169 c25 -23 27 -29 22
-85 -25 -256 -163 -456 -397 -573 -157 -78 -228 -94 -452 -99 -238 -6 -234
-14 -78 172 128 153 343 361 479 462 183 137 219 154 328 150 61 -2 76 -6 98
-27z m-845 -348 c0 -19 -328 -372 -347 -372 -8 0 -28 13 -44 30 -27 27 -30 35
-27 86 l3 56 55 18 c53 16 122 54 205 113 94 65 111 75 133 76 12 1 22 -2 22
-7z"/>
<path d="M1053 4675 c-13 -9 -27 -35 -34 -58 -14 -54 -39 -80 -102 -107 -157
-66 -173 -86 -67 -83 76 2 149 34 203 90 43 45 69 115 56 151 -10 26 -26 28
-56 7z"/>
<path d="M1232 4060 c-23 -23 -42 -46 -42 -52 0 -7 -11 -23 -24 -37 -72 -76
-211 -380 -254 -556 -47 -185 -53 -405 -18 -582 17 -85 95 -247 146 -306 20
-23 49 -62 65 -86 39 -62 126 -144 139 -131 21 21 -18 116 -82 200 -34 44 -83
172 -108 282 -65 287 -6 566 218 1026 68 140 83 213 54 257 -23 35 -45 31 -94
-15z"/>
</g>
</svg>
